# xmcd
#
# Track frame offsets:
#	150
#	18423
#	35153
#	51441
#	71589
#	88041
#	103556
#	119017
#	135897
#	150141
#	163505
#	178162
#	194350
#	208929
#	227390
#	243668
#	260659
#	275757
#	291239
#	308321
#	324072
#	337894
#
# Disc length: 4695 seconds
#
# Revision: 0
# Processed by: cddbd v1.5.2PL0 Copyright (c) Steve Scherf et al.
# Submitted via: audiograbber 1.83.01
#
DISCID=36125516
DTITLE=Mixed By G-Wizard - Def Rok - Troy T - Rnb Superclub Vol 12 - Disc 1
DYEAR=2012
DGENRE=R&B
TTITLE0=Good Feeling
TTITLE1=International Love
TTITLE2=Troublemaker 
TTITLE3=Take Care 
TTITLE4=Beautiful People 
TTITLE5=Throw Your Hands Up (Dancar Kuduro) 
TTITLE6=Without You
TTITLE7=Bounce
TTITLE8=Set It Off
TTITLE9=Hey Hey Hey (Pop Another Bottle) 
TTITLE10=Naughty
TTITLE11=Dj Got Us Fallin' In Love
TTITLE12=Love U Betta
TTITLE13=She Got Me (G-Wizard and Joey Kaz Mix)
TTITLE14=Shots
TTITLE15=We Run The Night 
TTITLE16=Club Certified 
TTITLE17=Light It Up 
TTITLE18=Dedication To My Ex (Miss That)
TTITLE19=Say My Name
TTITLE20=Body
TTITLE21=Saturday Night  
EXTD=
EXTT0=
EXTT1=
EXTT2=
EXTT3=
EXTT4=
EXTT5=
EXTT6=
EXTT7=
EXTT8=
EXTT9=
EXTT10=
EXTT11=
EXTT12=
EXTT13=
EXTT14=
EXTT15=
EXTT16=
EXTT17=
EXTT18=
EXTT19=
EXTT20=
EXTT21=
PLAYORDER=
